<svg width="48" height="46" viewBox="0 0 48 46" fill="none" xmlns="http://www.w3.org/2000/svg">
<path d="M27 25.875C27.284 25.875 27.522 25.783 27.714 25.599C27.9046 25.4163 28 25.1888 28 24.9167V20.125H33C33.284 20.125 33.5213 20.033 33.712 19.849C33.904 19.665 34 19.4376 34 19.1667C34 18.8958 33.904 18.6683 33.712 18.4843C33.5213 18.3003 33.284 18.2083 33 18.2083H28V13.4167C28 13.1445 27.904 12.9171 27.712 12.7343C27.52 12.5503 27.282 12.4583 26.998 12.4583C26.7153 12.4583 26.478 12.5503 26.286 12.7343C26.0953 12.9183 26 13.1458 26 13.4167V18.2083H21C20.716 18.2083 20.4786 18.3003 20.288 18.4843C20.096 18.6683 20 18.8958 20 19.1667C20 19.4376 20.096 19.665 20.288 19.849C20.48 20.0317 20.7173 20.1231 21 20.1231H26V24.9167C26 25.1888 26.096 25.4163 26.288 25.599C26.48 25.7817 26.716 25.8737 27 25.875ZM16.232 32.5833C15.312 32.5833 14.544 32.2882 13.928 31.6978C13.3106 31.1062 13.002 30.3696 13.002 29.4879V8.84542C13.002 7.96375 13.3106 7.22775 13.928 6.63742C14.5426 6.04581 15.3093 5.75 16.228 5.75H37.768C38.688 5.75 39.456 6.04581 40.072 6.63742C40.6893 7.22775 40.998 7.96375 40.998 8.84542V29.4879C40.998 30.3696 40.69 31.1062 40.074 31.6978C39.4566 32.2882 38.688 32.5833 37.768 32.5833H16.23H16.232ZM10.232 38.3333C9.31195 38.3333 8.54395 38.0382 7.92795 37.4478C7.31062 36.8562 7.00195 36.1196 7.00195 35.2379V13.6371C7.00195 13.3662 7.09795 13.1387 7.28995 12.9547C7.48195 12.7707 7.71862 12.6787 7.99995 12.6787C8.28262 12.6787 8.51995 12.7707 8.71195 12.9547C8.90262 13.1387 8.99795 13.3662 8.99795 13.6371V35.2379C8.99795 35.5816 9.11329 35.864 9.34395 36.0851C9.57462 36.3061 9.86929 36.4167 10.228 36.4167H32.768C33.0506 36.4167 33.288 36.5087 33.48 36.6927C33.672 36.8767 33.768 37.1047 33.768 37.3769C33.768 37.6478 33.672 37.8753 33.48 38.0592C33.288 38.242 33.0506 38.3333 32.768 38.3333H10.23H10.232Z" fill="black"/>
</svg>
