<svg width="65" height="51" viewBox="0 0 65 51" fill="none" xmlns="http://www.w3.org/2000/svg">
<path d="M37.4563 39.9372C37.0517 39.9382 36.652 39.8689 36.2864 39.7343C35.9208 39.5998 35.5988 39.4033 35.3438 39.1595L22.2626 26.548C21.8643 26.1719 21.6465 25.7001 21.6465 25.2133C21.6465 24.7264 21.8643 24.2547 22.2626 23.8786L35.8043 11.2671C36.264 10.8379 36.9246 10.568 37.6407 10.5167C38.3569 10.4655 39.0699 10.6371 39.623 10.9939C40.1761 11.3507 40.5239 11.8633 40.5899 12.4191C40.656 12.9749 40.4348 13.5283 39.9751 13.9576L27.8688 25.2238L39.5688 36.49C39.9 36.7986 40.1104 37.1743 40.1751 37.5727C40.2398 37.9711 40.156 38.3755 39.9338 38.7382C39.7115 39.1008 39.3601 39.4065 38.9211 39.6189C38.482 39.8314 37.9737 39.9419 37.4563 39.9372Z" fill="#DE4313"/>
</svg>
