<svg width="28" height="28" viewBox="0 0 28 28" fill="none" xmlns="http://www.w3.org/2000/svg">
<path d="M14 28C21.732 28 28 21.732 28 14C28 6.26801 21.732 0 14 0C6.26801 0 0 6.26801 0 14C0 21.732 6.26801 28 14 28Z" fill="#3C5A99"/>
<path d="M15.0883 21.0002V14.6236H17.2375L17.5602 12.1271H15.0883V10.5385C15.0883 9.8166 15.2879 9.32715 16.3215 9.32715H17.6312V7.10137C17.4043 7.07129 16.6223 7.00293 15.7117 7.00293C13.8113 7.00293 12.5098 8.1623 12.5098 10.2924V12.1299H10.3687V14.6264H12.5098V21.0002H15.0883Z" fill="white"/>
</svg>
