<svg width="33" height="31" viewBox="0 0 33 31" fill="none" xmlns="http://www.w3.org/2000/svg">
<path d="M32 15.3916C32 7.44336 25.0604 1 16.5 1C7.93959 1 1 7.44336 1 15.3916V15.6084C1 23.5566 7.93959 30 16.5 30C25.0604 30 32 23.5566 32 15.6084V15.3916Z" fill="white"/>
<path d="M8.5974 21.8736H11.5089V15.3085L7.34964 12.4121V20.7151C7.34964 21.3561 7.90906 21.8736 8.5974 21.8736Z" fill="#4285F4"/>
<path d="M21.4909 21.8736H24.4024C25.0928 21.8736 25.6501 21.3542 25.6501 20.7151V12.4121L21.4909 15.3085" fill="#34A853"/>
<path d="M21.4909 10.2888V15.3092L25.6501 12.4128V10.8681C25.6501 9.43531 23.8887 8.61856 22.6555 9.47779" fill="#FBBC04"/>
<path d="M11.5086 15.3085V10.2881L16.4997 13.7638L21.4908 10.2881V15.3085L16.4997 18.7841" fill="#EA4335"/>
<path d="M7.34964 10.8681V12.4128L11.5089 15.3092V10.2888L10.3443 9.47779C9.10901 8.61856 7.34964 9.43531 7.34964 10.8681Z" fill="#C5221F"/>
<path d="M32 15.3916C32 7.44336 25.0604 1 16.5 1C7.93959 1 1 7.44336 1 15.3916V15.6084C1 23.5566 7.93959 30 16.5 30C25.0604 30 32 23.5566 32 15.6084V15.3916Z" stroke="#C4CFE3" stroke-width="0.519094"/>
</svg>
