<svg width="25" height="30" viewBox="0 0 25 30" fill="none" xmlns="http://www.w3.org/2000/svg">
<path d="M10.7065 0.611925C11.4833 -0.203975 12.6985 -0.203975 13.4753 0.611925L23.2357 10.8632C23.8396 11.4975 24.1818 12.38 24.1818 13.3032V25.7705C24.1818 27.6249 22.8284 29.1284 21.1591 29.1284H17.1288C15.4594 29.1284 14.1061 27.6249 14.1061 25.7705V20.174C14.1061 19.5559 13.6549 19.0548 13.0985 19.0548H11.0833C10.5269 19.0548 10.0758 19.5559 10.0758 20.174V25.7705C10.0758 27.6249 8.72244 29.1284 7.05303 29.1284H3.02273C1.35332 29.1284 0 27.6249 0 25.7705V13.3032C0 12.38 0.342173 11.4975 0.946073 10.8632L10.7065 0.611925ZM12.0909 2.2386L2.3305 12.4899C2.12921 12.7013 2.01515 12.9955 2.01515 13.3032V25.7705C2.01515 26.3886 2.46626 26.8898 3.02273 26.8898H7.05303C7.60949 26.8898 8.06061 26.3886 8.06061 25.7705V20.174C8.06061 18.3196 9.41392 16.8162 11.0833 16.8162H13.0985C14.7679 16.8162 16.1212 18.3196 16.1212 20.174V25.7705C16.1212 26.3886 16.5724 26.8898 17.1288 26.8898H21.1591C21.7155 26.8898 22.1667 26.3886 22.1667 25.7705V13.3032C22.1667 12.9955 22.0526 12.7013 21.8513 12.4899L12.0909 2.2386Z" fill="#D9D9D9"/>
</svg>
