<svg width="16" height="19" viewBox="0 0 16 19" fill="none" xmlns="http://www.w3.org/2000/svg">
<path d="M8.00212 10.0576C7.70118 10.0589 7.40895 10.1623 7.17037 10.3521C6.93178 10.5418 6.76004 10.8074 6.68155 11.108C6.60305 11.4086 6.62215 11.7276 6.7359 12.0158C6.84966 12.3041 7.05177 12.5457 7.31118 12.7036V14.7305H8.70991V12.7036C8.91514 12.578 9.08547 12.3996 9.20433 12.1857C9.32319 11.9718 9.38654 11.7297 9.38821 11.483C9.38822 11.2951 9.35231 11.1091 9.28254 10.9355C9.21278 10.762 9.11055 10.6045 8.98173 10.472C8.85291 10.3396 8.70004 10.2348 8.53192 10.1636C8.3638 10.0925 8.18374 10.0565 8.00212 10.0576Z" stroke="#D9D9D9" stroke-width="1.75253" stroke-linecap="round" stroke-linejoin="round"/>
<path d="M13.18 6.78418H2.82004C1.81486 6.78418 1 7.62727 1 8.66728V16.1169C1 17.1569 1.81486 18 2.82004 18H13.18C14.1851 18 15 17.1569 15 16.1169V8.66728C15 7.62727 14.1851 6.78418 13.18 6.78418Z" stroke="#D9D9D9" stroke-width="1.75253" stroke-linecap="round" stroke-linejoin="round"/>
<path d="M3.5152 6.78443V5.64672C3.5152 4.41433 3.98837 3.23242 4.83062 2.36099C5.67287 1.48956 6.8152 1 8.00632 1C9.19744 1 10.3398 1.48956 11.182 2.36099C12.0243 3.23242 12.4974 4.41433 12.4974 5.64672V6.78443" stroke="#D9D9D9" stroke-width="1.75253" stroke-linecap="round" stroke-linejoin="round"/>
</svg>
