<svg width="27" height="26" viewBox="0 0 27 26" fill="none" xmlns="http://www.w3.org/2000/svg">
<path d="M19.8147 16.8089C21.4487 14.6618 22.1805 11.9997 21.8638 9.35529C21.5471 6.71086 20.2052 4.27909 18.1065 2.54651C16.0079 0.813916 13.3073 -0.091725 10.545 0.0107688C7.78267 0.113263 5.16242 1.21633 3.20844 3.09929C1.25446 4.98225 0.110836 7.50624 0.00637618 10.1663C-0.0980831 12.8264 0.844322 15.4263 2.64505 17.446C4.44578 19.4657 6.97203 20.7562 9.71839 21.0592C12.4648 21.3623 15.2287 20.6557 17.4572 19.0807H17.4555C17.5062 19.1457 17.5602 19.2074 17.6209 19.2675L24.1178 25.5238C24.4342 25.8287 24.8635 26.0001 25.3111 26.0002C25.7588 26.0004 26.1881 25.8293 26.5048 25.5246C26.8214 25.2199 26.9994 24.8066 26.9995 24.3755C26.9997 23.9444 26.822 23.531 26.5056 23.226L20.0087 16.9698C19.9484 16.911 19.8835 16.8583 19.8147 16.8089ZM20.25 10.5624C20.25 11.7361 20.01 12.8983 19.5436 13.9827C19.0771 15.067 18.3935 16.0523 17.5316 16.8822C16.6698 17.7121 15.6466 18.3704 14.5206 18.8196C13.3945 19.2687 12.1876 19.4999 10.9688 19.4999C9.74997 19.4999 8.54307 19.2687 7.41702 18.8196C6.29097 18.3704 5.26781 17.7121 4.40596 16.8822C3.54412 16.0523 2.86047 15.067 2.39404 13.9827C1.92762 12.8983 1.68755 11.7361 1.68755 10.5624C1.68755 8.19205 2.66539 5.91876 4.40597 4.24265C6.14654 2.56655 8.50726 1.62492 10.9688 1.62492C13.4303 1.62492 15.7911 2.56655 17.5316 4.24265C19.2722 5.91876 20.25 8.19205 20.25 10.5624Z" fill="white"/>
</svg>
