<svg width="27" height="29" viewBox="0 0 27 29" fill="none" xmlns="http://www.w3.org/2000/svg">
<path d="M16.8913 28.5719H9.94607C3.59251 28.5719 0.891602 25.7679 0.891602 19.2164V13.2496C0.891602 12.7048 1.32889 12.2529 1.85621 12.2529C2.38353 12.2529 2.82082 12.7048 2.82082 13.2496V19.2164C2.82082 24.6516 4.68573 26.5785 9.94607 26.5785H16.8784C22.1388 26.5785 24.0037 24.6516 24.0037 19.2164V13.2496C24.0037 12.7048 24.441 12.2529 24.9683 12.2529C25.4956 12.2529 25.9329 12.7048 25.9329 13.2496V19.2164C25.9458 25.7679 23.232 28.5719 16.8913 28.5719Z" fill="#D9D9D9"/>
<path d="M13.4179 15.2824C12.0031 15.2824 10.717 14.711 9.80385 13.6611C8.89069 12.6113 8.46626 11.2425 8.60773 9.78073L9.46947 0.903654C9.52091 0.398671 9.93248 0 10.4341 0H16.4403C16.9419 0 17.3535 0.385382 17.4049 0.903654L18.2667 9.78073C18.4081 11.2425 17.9837 12.6113 17.0706 13.6611C16.1188 14.711 14.8327 15.2824 13.4179 15.2824ZM11.2958 1.99335L10.5241 9.98006C10.4341 10.8704 10.6913 11.7076 11.2314 12.3189C12.3247 13.5681 14.5111 13.5681 15.6043 12.3189C16.1445 11.6943 16.4018 10.8571 16.3117 9.98006L15.54 1.99335H11.2958Z" fill="#D9D9D9"/>
<path d="M21.5344 15.2824C18.9235 15.2824 16.5956 13.103 16.3255 10.4186L15.4252 1.10299C15.3995 0.82392 15.4895 0.54485 15.6696 0.332226C15.8496 0.119601 16.1069 0 16.3898 0H20.3126C24.0938 0 25.8559 1.63455 26.3832 5.64784L26.7433 9.34219C26.8976 10.9103 26.4346 12.3987 25.4443 13.5282C24.454 14.6578 23.0649 15.2824 21.5344 15.2824ZM17.4573 1.99335L18.2547 10.2193C18.4219 11.8804 19.9139 13.289 21.5344 13.289C22.5119 13.289 23.3865 12.9036 24.0167 12.1993C24.634 11.495 24.917 10.5515 24.827 9.54152L24.4668 5.88704C24.0681 2.88372 23.1292 1.99335 20.3126 1.99335H17.4573Z" fill="#D9D9D9"/>
<path d="M5.23801 15.2824C3.70749 15.2824 2.31846 14.6578 1.32812 13.5282C0.337792 12.3987 -0.125221 10.9103 0.0291166 9.34219L0.376376 5.68771C0.916557 1.63455 2.67858 0 6.45986 0H10.3826C10.6527 0 10.9099 0.119601 11.1028 0.332226C11.2957 0.54485 11.3729 0.82392 11.3472 1.10299L10.4469 10.4186C10.1768 13.103 7.84889 15.2824 5.23801 15.2824ZM6.45986 1.99335C3.64319 1.99335 2.7043 2.87043 2.29273 5.91362L1.94547 9.54152C1.84258 10.5515 2.1384 11.495 2.75575 12.1993C3.3731 12.9036 4.24768 13.289 5.23801 13.289C6.85855 13.289 8.36334 11.8804 8.51768 10.2193L9.31511 1.99335H6.45986Z" fill="#D9D9D9"/>
<path d="M16.6346 28.5715H10.2039C9.67655 28.5715 9.23926 28.1196 9.23926 27.5748V24.2525C9.23926 21.4618 10.7183 19.9336 13.4192 19.9336C16.1201 19.9336 17.5992 21.4618 17.5992 24.2525V27.5748C17.5992 28.1196 17.1619 28.5715 16.6346 28.5715ZM11.1685 26.5781H15.67V24.2525C15.67 22.5781 15.0398 21.9269 13.4192 21.9269C11.7987 21.9269 11.1685 22.5781 11.1685 24.2525V26.5781Z" fill="#D9D9D9"/>
</svg>
