<svg width="28" height="29" viewBox="0 0 28 29" fill="none" xmlns="http://www.w3.org/2000/svg">
<path d="M28 14.5C28 6.49187 21.732 0 14 0C6.26801 0 0 6.49187 0 14.5C0 22.5081 6.26801 29 14 29C21.732 29 28 22.5081 28 14.5Z" fill="#00D95F"/>
<path d="M7.00003 21.2141L8.00451 17.3458C7.19443 15.8389 6.93707 14.0805 7.27963 12.3933C7.62219 10.706 8.54171 9.20311 9.86945 8.16029C11.1972 7.11751 12.8441 6.60476 14.508 6.71615C16.1718 6.82754 17.741 7.55563 18.9276 8.76679C20.1142 9.97795 20.8386 11.5909 20.9679 13.3098C21.0971 15.0286 20.6226 16.738 19.6313 18.1243C18.6401 19.5105 17.1986 20.4807 15.5714 20.8567C13.9442 21.2327 12.2404 20.9894 10.7727 20.1714L7.00003 21.2141ZM10.9546 18.7238L11.188 18.8669C12.251 19.5185 13.4927 19.7881 14.7194 19.6338C15.9462 19.4794 17.0891 18.9099 17.9701 18.0138C18.8511 17.1177 19.4206 15.9455 19.59 14.6797C19.7594 13.414 19.5191 12.1258 18.9066 11.0161C18.294 9.90628 17.3436 9.03718 16.2035 8.5442C15.0634 8.05125 13.7976 7.96209 12.6033 8.29066C11.4091 8.6192 10.3535 9.34703 9.60108 10.3607C8.84865 11.3743 8.44162 12.6168 8.44346 13.8946C8.44248 14.9542 8.72584 15.9932 9.26207 16.896L9.40839 17.1455L8.84684 19.3045L10.9546 18.7238Z" fill="white"/>
<path fill-rule="evenodd" clip-rule="evenodd" d="M16.6175 14.888C16.4807 14.774 16.3206 14.6937 16.1492 14.6533C15.9779 14.6129 15.7999 14.6135 15.6289 14.655C15.3718 14.7654 15.2057 15.1824 15.0396 15.391C15.0046 15.441 14.9531 15.476 14.8949 15.4896C14.8366 15.5032 14.7756 15.4943 14.7233 15.4646C13.7822 15.0835 12.9934 14.3846 12.485 13.4814C12.4416 13.4251 12.4211 13.3535 12.4277 13.2818C12.4344 13.2101 12.4676 13.1439 12.5205 13.097C12.7058 12.9074 12.8418 12.6725 12.916 12.4142C12.9325 12.1292 12.8693 11.8453 12.7341 11.5963C12.6296 11.2474 12.4306 10.9366 12.1607 10.7009C12.0215 10.6361 11.8671 10.6144 11.7163 10.6384C11.5654 10.6623 11.4245 10.7309 11.3104 10.8358C11.1125 11.0124 10.9554 11.2326 10.8507 11.4803C10.746 11.728 10.6963 11.9968 10.7054 12.2669C10.706 12.4187 10.7246 12.5697 10.7608 12.7168C10.8526 13.07 10.9938 13.4075 11.1799 13.7186C11.3142 13.9568 11.4608 14.1875 11.6189 14.4096C12.1328 15.1391 12.7788 15.7585 13.5211 16.2333C13.8935 16.4747 14.2916 16.6709 14.7074 16.8181C15.1394 17.0205 15.6163 17.0983 16.0876 17.043C16.3561 17.001 16.6105 16.8913 16.8284 16.7238C17.0463 16.5562 17.2211 16.3358 17.3373 16.082C17.4055 15.9287 17.4262 15.7573 17.3966 15.5914C17.3254 15.252 16.8864 15.0516 16.6175 14.888Z" fill="white"/>
</svg>
