<svg width="39" height="31" viewBox="0 0 39 31" fill="none" xmlns="http://www.w3.org/2000/svg">
<path d="M16.3311 13.7009L4.84234 22.8329C4.54017 23.0729 4.30045 23.3578 4.1369 23.6714C3.97334 23.985 3.88916 24.3212 3.88916 24.6606C3.88916 25.0001 3.97334 25.3363 4.1369 25.6499C4.30045 25.9635 4.54017 26.2484 4.84234 26.4884C5.45181 26.9727 6.27831 27.2447 7.14009 27.2447C8.00188 27.2447 8.82838 26.9727 9.43784 26.4884L20.9266 17.3537M16.3311 13.7009C14.9596 10.9199 15.2277 7.27094 18.0536 5.02344C20.8811 2.77594 26.0973 2.28382 28.9703 3.65427L24.0303 7.58094L23.5705 11.5993L28.6258 11.2351L33.5658 7.30711C35.2916 9.59077 34.6708 13.737 31.8433 15.9832C29.0158 18.2307 24.4252 18.4439 20.9266 17.3537" stroke="#B3B3B3" stroke-width="1.5" stroke-linecap="round" stroke-linejoin="round"/>
</svg>
